<svg xmlns="http://www.w3.org/2000/svg" viewBox="0 0 186.95 186.94"><defs><style>.cls-1{fill:#f45227;}</style></defs><g id="Layer_2" data-name="Layer 2"><g id="Layer_1-2" data-name="Layer 1"><path class="cls-1" d="M126.44,6.89A26.46,26.46,0,0,0,90,7.71L7.72,90a26.49,26.49,0,0,0-.87,36.47l.09-.08L126.36,6.93S126.4,6.89,126.44,6.89Z"/><path class="cls-1" d="M180.1,60.51l-.08.08L60.59,180s0,0-.08,0A26.45,26.45,0,0,0,97,179.22L179.23,97A26.48,26.48,0,0,0,180.1,60.51Z"/><path class="cls-1" d="M171.24,15.7a25.61,25.61,0,0,0-36.11,0L15.71,135.12a25.54,25.54,0,0,0,36.11,36.12L171.24,51.82A25.6,25.6,0,0,0,171.24,15.7ZM160.48,41.07c-5.63,5.63-10.66,6.57-14.7,7.33-3.19.6-5.3,1-8.22,3.9s-3.31,5-3.9,8.22c-.76,4-1.7,9.08-7.33,14.7s-10.65,6.56-14.69,7.32c-3.2.6-5.3,1-8.21,3.9s-3.3,5-3.9,8.2c-.75,4-1.69,9.07-7.31,14.69s-10.65,6.56-14.68,7.31c-3.19.59-5.3,1-8.21,3.89s-3.3,5-3.89,8.21c-.75,4-1.69,9.07-7.31,14.69S47.48,150,43.44,150.74c-3.19.6-5.3,1-8.21,3.89a6.19,6.19,0,0,1-8.76-8.76c5.62-5.62,10.65-6.56,14.69-7.31,3.19-.6,5.3-1,8.2-3.9s3.3-5,3.9-8.2c.75-4,1.69-9.07,7.31-14.69s10.65-6.56,14.69-7.31c3.19-.59,5.3-1,8.2-3.89s3.3-5,3.89-8.2c.76-4,1.7-9.07,7.31-14.69s10.66-6.56,14.7-7.32c3.19-.6,5.3-1,8.21-3.9s3.31-5,3.91-8.22c.75-4,1.7-9.07,7.32-14.7s10.66-6.57,14.7-7.32c3.19-.6,5.31-1,8.22-3.91a6.19,6.19,0,1,1,8.76,8.76Z"/></g></g></svg>